<?xml version="1.0" encoding="UTF-8"?>
<svg width="18.0000744px" height="19.5000003px" viewBox="0 0 18.0000744 19.5000003" version="1.1" xmlns="http://www.w3.org/2000/svg" xmlns:xlink="http://www.w3.org/1999/xlink">
    <title>Icon/手动创建</title>
    <g id="配置管理-增加KV型、表格型" stroke="none" stroke-width="1" fill="none" fill-rule="evenodd">
        <g id="配置项管理-未设置表结构" transform="translate(-105.7499, -226.25)">
            <g id="卡片/常规" transform="translate(83, 211)">
                <g id="编组" transform="translate(16, 10)">
                    <g id="Icon/手动创建" transform="translate(3, 3)">
                        <path d="M12.525,2.24999967 C12.9538916,2.24999967 13.2788916,2.30677273 13.5,2.42031887 C13.7211084,2.53386478 13.9722771,2.70050431 14.253506,2.92023746 L19.3257066,6.63161304 C19.5392301,6.8218253 19.7049931,7.00741247 19.8229959,7.18837456 C19.9411049,7.36933665 20.0001595,7.61904513 20.0001595,7.9375 L20.0001595,12 L18.375,12 L18.375,7.9375 L12.525,3.875 L5.375,3.875 L5.375,20.125 L13.5,20.125 L13.5,21.7499997 L5.25101247,21.7499997 C4.74920101,21.7499997 4.37386352,21.6249998 4.125,21.375 C3.87613648,21.125 3.75111167,20.7499999 3.74992558,20.2499997 L3.74992558,3.74999967 C3.75456885,3.24999989 3.87959366,2.875 4.125,2.625 C4.37040634,2.37499978 4.74540634,2.24999967 5.25,2.24999967 Z M18.45,13.5 L18.449,16.8 L21.75,16.8 L21.75,18.45 L18.449,18.45 L18.45,21.75 L16.8,21.75 L16.799,18.45 L13.5,18.45 L13.5,16.8 L16.799,16.8 L16.8,13.5 L18.45,13.5 Z M11.875,14.5 L11.875,16.125 L7,16.125 L7,14.5 L11.875,14.5 Z M15.125,11.25 L15.125,12.875 L7,12.875 L7,11.25 L15.125,11.25 Z M8.625,8 L8.625,9.625 L7,9.625 L7,8 L8.625,8 Z M11.875,8 L11.875,9.625 L10.25,9.625 L10.25,8 L11.875,8 Z M15.125,8 L15.125,9.625 L13.5,9.625 L13.5,8 L15.125,8 Z" id="形状结合" fill="#63656E"></path>
                        <rect id="codesign_placeholder_name" x="0" y="0" width="24" height="24"></rect>
                    </g>
                </g>
            </g>
        </g>
    </g>
</svg>