<?xml version="1.0" encoding="UTF-8"?>
<svg width="18px" height="19.5px" viewBox="0 0 18 19.5" version="1.1" xmlns="http://www.w3.org/2000/svg" xmlns:xlink="http://www.w3.org/1999/xlink">
    <title>Icon/手动创建备份</title>
    <g id="配置管理-增加KV型、表格型" stroke="none" stroke-width="1" fill="none" fill-rule="evenodd">
        <g id="配置项管理-未设置表结构" transform="translate(-409, -382.25)">
            <g id="卡片/常规备份-2" transform="translate(387, 367)">
                <g id="编组" transform="translate(16, 10)">
                    <g id="Icon/手动创建备份" transform="translate(3, 3)">
                        <path d="M12.339,2.25 L12.339,10.19625 L14.106,10.19625 L14.106,7.76175 L17.2515,11.51325 L14.10525,15.306 L14.10525,12.867 L12.33825,12.867 L12.33825,21.75 L3,19.5 L3,4.875 L12.339,2.25 Z M21,4.14525 L21,18.91125 L15.01425,18.91125 L15.01425,16.88475 L19.03575,16.88475 L19.03575,6.1305 L15.01425,6.1305 L15.01425,4.14525 L21,4.14525 Z M10.314,7.73025 L8.32275,8.23425 L7.10775,10.43325 L6.19875,8.77125 L4.73925,9.14025 L6.279,11.9325 L4.68525,14.81475 L6.24075,15.21825 L7.1595,13.53 L8.3985,15.777 L10.29975,16.26975 L7.97775,12.0255 L10.314,7.73025 Z M12.3375,9.075 L10.3125,9.075 L10.3125,13.995 L12.3375,13.995 L12.3375,12.87 L11.434263,12.87 L11.434263,10.2 L12.3375,10.2 L12.3375,9.075 Z" id="形状结合" fill="#63656E"></path>
                        <rect id="codesign_placeholder_name" x="0" y="0" width="24" height="24"></rect>
                    </g>
                </g>
            </g>
        </g>
    </g>
</svg>